<svg id="Layer_3" enable-background="new 0 0 64 64" height="512" viewBox="0 0 64 64" width="512" xmlns="http://www.w3.org/2000/svg"><g><path d="m10 49c-2.757 0-5 2.243-5 5s2.243 5 5 5 5-2.243 5-5-2.243-5-5-5zm0 8c-1.654 0-3-1.346-3-3s1.346-3 3-3 3 1.346 3 3-1.346 3-3 3z"/><path d="m62 9h-43.059c-.499-4.493-4.316-8-8.941-8-4.963 0-9 4.037-9 9v45h.059c.499 4.493 4.316 8 8.941 8h52c.553 0 1-.447 1-1v-52c0-.553-.447-1-1-1zm-59 1c0-3.859 3.141-7 7-7s7 3.141 7 7v38.355c-1.651-2.043-4.174-3.355-7-3.355s-5.349 1.312-7 3.355zm0 44c0-3.859 3.141-7 7-7s7 3.141 7 7-3.141 7-7 7-7-3.141-7-7zm58 7h-45.355c1.799-1.453 3.028-3.583 3.296-6h.059v-44h42z"/><path d="m33 33c5.514 0 10-4.486 10-10s-4.486-10-10-10-10 4.486-10 10 4.486 10 10 10zm-7.931-9h6.813l-.752 6.77c-3.194-.769-5.644-3.454-6.061-6.77zm8.049 6.994.833-7.493 5.722-4.904c.836 1.264 1.327 2.777 1.327 4.403 0 4.371-3.526 7.93-7.882 7.994zm-.118-15.994c2.066 0 3.945.794 5.366 2.084l-5.736 4.916h-7.56c.494-3.94 3.858-7 7.93-7z"/><path d="m43 30h16v2h-16z"/><path d="m53 26h2v2h-2z"/><path d="m57 26h2v2h-2z"/><path d="m45 26h2v2h-2z"/><path d="m49 26h2v2h-2z"/><path d="m21 55h14v2h-14z"/><path d="m33 51h2v2h-2z"/><path d="m25 51h2v2h-2z"/><path d="m21 51h2v2h-2z"/><path d="m29 51h2v2h-2z"/><path d="m58 41h-20c-.553 0-1 .447-1 1v14c0 .553.447 1 1 1h20c.553 0 1-.447 1-1v-14c0-.553-.447-1-1-1zm-1 14h-18v-12h18z"/><path d="m55 51h-2v-2h-2v2h-2v-4h-2v4h-2v-6h-2v6h-2v2h14z"/><path d="m25 37.202 2.445 1.63c.298.198.68.222 1.002.062l3.553-1.776 3.553 1.776c.256.129.555.141.818.034l4.583-1.833 3.599 1.799c.281.141.613.141.895 0l3.552-1.776 3.553 1.776c.141.071.295.106.447.106.212 0 .424-.067.6-.2l2.891-2.167.562 1.684 1.896-.633-1-3c-.102-.305-.343-.542-.65-.638-.308-.098-.642-.039-.897.154l-3.506 2.629-3.447-1.724c-.281-.141-.613-.141-.895 0l-3.554 1.777-3.553-1.776c-.255-.128-.554-.14-.818-.034l-4.583 1.833-3.599-1.799c-.281-.141-.613-.141-.895 0l-3.48 1.74-2.518-1.678c-.336-.225-.773-.225-1.109 0l-3 2 1.109 1.664z"/></g></svg>